<svg viewBox="0 0 16 16" width="16" height="16" fill="currentColor" xmlns="http://www.w3.org/2000/svg" class="bi">
  <path d="M6 2C6 1.448 6.448 1 7 1L9 1C9.552 1 10 1.448 10 2L10 4C10 4.552 9.552 5 9 5L7 5C6.448 5 6 4.552 6 4L6 2ZM6 7C6 6.448 6.448 6 7 6L9 6C9.552 6 10 6.448 10 7L10 9C10 9.552 9.552 10 9 10L7 10C6.448 10 6 9.552 6 9L6 7ZM11 7C11 6.448 11.448 6 12 6L14 6C14.552 6 15 6.448 15 7L15 9C15 9.552 14.552 10 14 10L12 10C11.448 10 11 9.552 11 9L11 7ZM1 12C1 11.448 1.448 11 2 11L4 11C4.552 11 5 11.448 5 12L5 14C5 14.552 4.552 15 4 15L2 15C1.448 15 1 14.552 1 14L1 12ZM6 12C6 11.448 6.448 11 7 11L9 11C9.552 11 10 11.448 10 12L10 14C10 14.552 9.552 15 9 15L7 15C6.448 15 6 14.552 6 14L6 12ZM11 12C11 11.448 11.448 11 12 11L14 11C14.552 11 15 11.448 15 12L15 14C15 14.552 14.552 15 14 15L12 15C11.448 15 11 14.552 11 14L11 12Z" transform="matrix(1, 0, 0, 1, 0, 0)"/>
</svg>